<?xml version="1.0" standalone="no"?>
<!DOCTYPE svg PUBLIC "-//W3C//DTD SVG 20010904//EN"
 "http://www.w3.org/TR/2001/REC-SVG-20010904/DTD/svg10.dtd">
<svg version="1.0" xmlns="http://www.w3.org/2000/svg"
 width="160.000000pt" height="163.000000pt" viewBox="0 0 160.000000 163.000000"
 preserveAspectRatio="xMidYMid meet">

<g transform="translate(0.000000,163.000000) scale(0.100000,-0.100000)"
fill="#000000" stroke="none">
<path d="M720 1465 c0 -4 10 -38 21 -76 12 -39 20 -71 18 -73 -7 -5 -173 -38
-198 -40 -23 -1 -27 6 -45 69 -11 39 -21 72 -23 74 -7 9 -153 -71 -213 -117
-60 -46 -152 -148 -179 -199 -12 -24 -17 -22 112 -54 26 -6 49 -15 52 -19 3
-4 -7 -35 -20 -69 -14 -33 -25 -69 -25 -79 0 -10 -6 -26 -13 -36 -12 -16 -17
-16 -100 5 -48 12 -90 19 -94 16 -3 -3 -6 -52 -6 -109 0 -118 22 -213 78 -335
l35 -75 24 29 c13 16 51 48 84 71 l59 41 83 -80 83 -81 -72 -72 c-39 -39 -71
-79 -71 -88 0 -33 161 -112 291 -143 35 -8 115 -18 177 -22 132 -7 127 -15 86
127 -14 50 -23 94 -20 99 3 4 29 11 58 15 28 4 77 16 107 27 32 11 59 15 64
10 12 -12 57 -169 57 -199 l0 -23 60 33 c80 44 172 117 164 130 -4 6 -2 8 3 5
26 -16 183 203 183 255 0 10 -31 22 -96 37 -109 26 -103 16 -70 131 9 30 16
65 16 78 0 29 30 29 125 2 38 -11 72 -20 74 -20 9 0 -10 180 -25 230 -22 74
-69 165 -112 218 l-35 42 -63 -56 -64 -56 -63 54 c-34 30 -73 62 -86 71 l-24
16 64 60 c35 33 61 62 59 64 -15 14 -120 60 -187 83 -62 21 -104 27 -205 32
-71 3 -128 2 -128 -3z m218 -83 c2 -7 -5 -12 -17 -12 -14 0 -19 5 -14 15 6 17
25 15 31 -3z m87 -32 c-5 -8 -11 -8 -17 -2 -6 6 -7 16 -3 22 5 8 11 8 17 2 6
-6 7 -16 3 -22z m-655 -25 c-7 -8 -17 -15 -23 -15 -6 0 -2 7 9 15 25 19 30 19
14 0z m548 -17 c-3 -7 -11 -13 -18 -13 -7 0 -15 6 -17 13 -3 7 4 12 17 12 13
0 20 -5 18 -12z m-588 -12 c0 -2 -8 -10 -17 -17 -16 -13 -17 -12 -4 4 13 16
21 21 21 13z m680 -11 c0 -8 -6 -15 -14 -15 -17 0 -28 14 -19 24 12 12 33 6
33 -9z m-635 -25 c11 -17 -5 -32 -21 -19 -7 6 -11 15 -8 20 7 12 21 11 29 -1z
m365 -29 c0 -10 -128 -36 -137 -27 -3 3 9 12 28 20 37 17 109 21 109 7z m213
-2 c21 -6 37 -15 35 -20 -4 -13 -6 -13 -73 1 -30 6 -55 16 -55 21 0 12 46 11
93 -2z m-648 -39 c0 -7 -6 -15 -12 -17 -8 -3 -13 4 -13 17 0 13 5 20 13 18 6
-3 12 -11 12 -18z m70 10 c3 -6 -1 -13 -10 -16 -19 -8 -30 0 -20 15 8 14 22
14 30 1z m65 -5 c0 -8 -7 -15 -15 -15 -8 0 -15 7 -15 15 0 8 7 15 15 15 8 0
15 -7 15 -15z m-70 -60 c0 -8 -7 -15 -15 -15 -8 0 -15 7 -15 15 0 8 7 15 15
15 8 0 15 -7 15 -15z m129 8 c0 -5 -21 -26 -45 -47 -30 -26 -48 -36 -55 -29
-7 7 3 22 31 46 36 34 71 48 69 30z m663 -30 c38 -37 47 -53 28 -53 -13 0 -90
70 -90 81 0 19 26 7 62 -28z m286 -120 c-2 -9 -10 -17 -18 -18 -8 -2 -32 -6
-54 -10 -31 -6 -38 -5 -34 6 3 8 13 13 22 13 9 -1 16 3 16 8 0 6 9 8 20 5 11
-3 20 -1 20 4 0 5 7 9 16 9 9 0 14 -7 12 -17z m-1108 -30 c0 -24 -36 -113 -44
-110 -20 7 11 117 33 117 6 0 11 -3 11 -7z m951 -30 c6 -16 13 -41 16 -57 10
-47 -17 -27 -38 29 -23 60 -22 55 -4 55 9 0 20 -12 26 -27z m193 -26 c-6 -18
-96 -39 -108 -26 -14 13 -2 20 38 22 20 1 36 5 36 10 0 4 9 7 20 7 12 0 17 -5
14 -13z m-1166 -222 c15 -58 15 -75 -1 -75 -14 0 -37 61 -37 99 0 38 26 22 38
-24z m994 9 c-3 -38 -22 -84 -33 -84 -12 0 -11 22 2 76 13 49 36 55 31 8z
m-1124 -51 c-4 -22 -22 -20 -26 1 -2 10 3 16 13 16 10 0 15 -7 13 -17z m261
-177 c41 -42 43 -69 4 -47 -31 16 -75 69 -69 80 11 18 19 13 65 -33z m765 25
c7 -11 -69 -81 -89 -81 -23 0 -18 12 22 52 38 37 57 46 67 29z m66 -75 c-13
-13 -35 7 -25 24 5 8 11 8 21 -1 10 -8 12 -15 4 -23z m-604 -72 c57 -16 72
-34 28 -34 -42 0 -104 22 -104 37 0 17 10 16 76 -3z m319 7 c8 -13 -10 -23
-72 -37 -44 -10 -53 -10 -53 2 0 7 18 18 43 24 23 6 47 13 52 15 17 6 24 5 30
-4z m288 -38 c9 -9 -13 -34 -24 -27 -14 8 -11 34 4 34 8 0 17 -3 20 -7z m-673
-47 c0 -8 -5 -18 -11 -22 -14 -8 -33 11 -25 25 10 16 36 13 36 -3z m36 -47
c10 -17 -13 -36 -27 -22 -12 12 -4 33 11 33 5 0 12 -5 16 -11z m34 -64 c0 -8
-6 -15 -14 -15 -17 0 -28 14 -19 24 12 12 33 6 33 -9z"/>
</g>
</svg>
